<svg width="120" height="36" viewBox="0 0 120 36" fill="none" xmlns="http://www.w3.org/2000/svg">
<path d="M18.4997 0C17.0961 0 15.73 0.160642 14.4194 0.465194C7.75489 2.00937 2.50933 7.25502 0.965185 13.919C0.660639 15.2303 0.5 16.5964 0.5 18C0.5 27.9411 8.55875 36 18.4997 36C19.9033 36 21.2694 35.8394 22.5806 35.5348C29.2444 33.9906 34.49 28.7456 36.0348 22.0823C36.3394 20.7711 36.5 19.4043 36.5 18C36.5 8.0589 28.4406 0 18.4997 0ZM18.4997 29.2724C17.171 29.2724 15.8966 29.0428 14.7133 28.6205C11.5339 27.4866 9.0139 24.9665 7.88005 21.7871C7.4577 20.6037 7.22812 19.3286 7.22812 18C7.22812 11.7744 12.2742 6.72758 18.4997 6.72758C19.8283 6.72758 21.1027 6.95716 22.2861 7.37952C25.4654 8.51339 27.9861 11.0335 29.1199 14.2129C29.5423 15.3963 29.7719 16.6714 29.7719 18C29.7719 24.2256 24.7251 29.2724 18.4997 29.2724Z" fill="url(#paint0_linear_84_244)"/>
<path d="M18.4997 10.7349C14.4877 10.7349 11.2347 13.9879 11.2347 17.9999C11.2347 22.012 14.4877 25.265 18.4997 25.265C22.5116 25.265 25.7646 22.012 25.7646 17.9999C25.7646 13.9879 22.5123 10.7349 18.4997 10.7349ZM18.4997 22.3928C16.074 22.3928 14.1068 20.4263 14.1068 17.9999C14.1068 15.5736 16.074 13.607 18.4997 13.607C20.9253 13.607 22.8925 15.5736 22.8925 17.9999C22.8925 20.4263 20.926 22.3928 18.4997 22.3928Z" fill="#FEFCFE"/>
<path d="M22.2861 7.37966C21.1027 6.9573 19.8283 6.72771 18.4997 6.72771C12.2742 6.72771 7.22812 11.7746 7.22812 18.0001C7.22812 19.3288 7.4577 20.6039 7.88004 21.7873C6.44165 21.2438 5.09295 20.393 3.935 19.2351C2.41562 17.7157 1.42568 15.8676 0.965179 13.9191C2.50933 7.25516 7.75488 2.00951 14.4194 0.465332C16.3672 0.925841 18.2152 1.9158 19.7346 3.43521C20.8919 4.59251 21.7426 5.94124 22.2861 7.37966Z" fill="url(#paint1_linear_84_244)"/>
<path d="M36.0348 22.0824C34.49 28.7457 29.2444 33.9907 22.5806 35.5348C20.6328 35.0743 18.7848 34.0844 17.2654 32.565C16.1075 31.407 15.2568 30.0583 14.7133 28.6205C15.8966 29.0429 17.171 29.2725 18.4997 29.2725C24.7251 29.2725 29.7719 24.2256 29.7719 18C29.7719 16.6714 29.5423 15.3963 29.12 14.2129C30.5577 14.7564 31.9064 15.6071 33.0643 16.7651C34.5837 18.2845 35.5743 20.1339 36.0348 22.0824Z" fill="url(#paint2_linear_84_244)"/>
<path d="M9.59622 30.6713C11.6767 30.6713 13.3632 28.9848 13.3632 26.9043C13.3632 24.8238 11.6767 23.1372 9.59622 23.1372C7.51577 23.1372 5.82922 24.8238 5.82922 26.9043C5.82922 28.9848 7.51577 30.6713 9.59622 30.6713Z" fill="#14978C"/>
<path d="M27.4366 12.8305C29.517 12.8305 31.2036 11.1439 31.2036 9.06346C31.2036 6.98296 29.517 5.29639 27.4366 5.29639C25.3561 5.29639 23.6696 6.98296 23.6696 9.06346C23.6696 11.1439 25.3561 12.8305 27.4366 12.8305Z" fill="url(#paint3_linear_84_244)"/>
<g opacity="0.5">
<path d="M56.06 24.528C55.906 24.626 55.759 24.6563 55.619 24.619C55.479 24.5817 55.36 24.486 55.262 24.332L53.092 20.72H51.132V23.912C51.132 24.304 50.936 24.5 50.544 24.5C50.152 24.5 49.956 24.304 49.956 23.912V15.596C49.956 15.204 50.152 15.008 50.544 15.008H53.82C54.674 15.008 55.3273 15.2367 55.78 15.694C56.2373 16.1467 56.466 16.8 56.466 17.654V18.074C56.466 18.816 56.2933 19.4087 55.948 19.852C55.6027 20.2907 55.1033 20.5637 54.45 20.671L56.284 23.73C56.4613 24.0567 56.3867 24.3227 56.06 24.528ZM51.132 19.544H53.82C54.352 19.544 54.73 19.432 54.954 19.208C55.178 18.984 55.29 18.606 55.29 18.074V17.654C55.29 17.1267 55.178 16.751 54.954 16.527C54.73 16.2983 54.352 16.184 53.82 16.184H51.132V19.544ZM61.506 24.5C60.4373 24.5 59.6463 24.2457 59.133 23.737C58.6243 23.2237 58.37 22.4327 58.37 21.364V18.13C58.37 17.052 58.6267 16.261 59.14 15.757C59.6533 15.2483 60.442 14.9987 61.506 15.008H63.186C64.2593 15.008 65.0503 15.2623 65.559 15.771C66.0677 16.2797 66.322 17.0707 66.322 18.144V21.364C66.322 22.4327 66.0677 23.2237 65.559 23.737C65.0503 24.2457 64.2593 24.5 63.186 24.5H61.506ZM61.506 23.324H63.186C63.6853 23.324 64.0773 23.2657 64.362 23.149C64.6467 23.0277 64.8473 22.8247 64.964 22.54C65.0853 22.2553 65.146 21.8633 65.146 21.364V18.144C65.146 17.6493 65.0853 17.2597 64.964 16.975C64.8473 16.6903 64.6467 16.4873 64.362 16.366C64.0773 16.2447 63.6853 16.184 63.186 16.184H61.506C61.0113 16.1793 60.6217 16.2353 60.337 16.352C60.0523 16.4687 59.8493 16.6693 59.728 16.954C59.6067 17.2387 59.546 17.6307 59.546 18.13V21.364C59.546 21.8633 59.6043 22.2553 59.721 22.54C59.8423 22.8247 60.0453 23.0277 60.33 23.149C60.6147 23.2657 61.0067 23.324 61.506 23.324ZM71.9575 24.5C70.8889 24.5 70.0979 24.2457 69.5845 23.737C69.0759 23.2237 68.8215 22.4327 68.8215 21.364V15.596C68.8215 15.4 68.8705 15.253 68.9685 15.155C69.0665 15.057 69.2135 15.008 69.4095 15.008C69.6055 15.008 69.7525 15.057 69.8505 15.155C69.9485 15.253 69.9975 15.4 69.9975 15.596V21.364C69.9975 21.8633 70.0559 22.2553 70.1725 22.54C70.2939 22.8247 70.4969 23.0277 70.7815 23.149C71.0662 23.2657 71.4582 23.324 71.9575 23.324H73.6375C74.1369 23.324 74.5289 23.2657 74.8135 23.149C75.0982 23.0277 75.2989 22.8247 75.4155 22.54C75.5369 22.2553 75.5975 21.8633 75.5975 21.364V15.596C75.5975 15.4 75.6465 15.253 75.7445 15.155C75.8425 15.057 75.9895 15.008 76.1855 15.008C76.3815 15.008 76.5285 15.057 76.6265 15.155C76.7245 15.253 76.7735 15.4 76.7735 15.596V21.364C76.7735 22.4327 76.5192 23.2237 76.0105 23.737C75.5019 24.2457 74.7109 24.5 73.6375 24.5H71.9575ZM82.4523 24.5C82.2563 24.5 82.1093 24.451 82.0113 24.353C81.9133 24.255 81.8643 24.108 81.8643 23.912V16.198H79.1483C78.9523 16.198 78.8053 16.149 78.7073 16.051C78.6093 15.953 78.5603 15.806 78.5603 15.61C78.5603 15.414 78.6093 15.267 78.7073 15.169C78.8053 15.071 78.9523 15.022 79.1483 15.022H85.7563C85.9523 15.022 86.0993 15.071 86.1973 15.169C86.2953 15.267 86.3443 15.414 86.3443 15.61C86.3443 15.806 86.2953 15.953 86.1973 16.051C86.0993 16.149 85.9523 16.198 85.7563 16.198H83.0403V23.912C83.0403 24.0987 82.989 24.2433 82.8863 24.346C82.7883 24.4487 82.6436 24.5 82.4523 24.5ZM88.7979 24.5C88.5972 24.5 88.4479 24.4533 88.3499 24.36C88.2566 24.262 88.2099 24.1127 88.2099 23.912V15.61C88.2099 15.4047 88.2566 15.2553 88.3499 15.162C88.4479 15.0687 88.5972 15.022 88.7979 15.022C89.0032 15.022 89.1526 15.0687 89.2459 15.162C89.3392 15.2553 89.3859 15.4047 89.3859 15.61V23.912C89.3859 24.1127 89.3392 24.262 89.2459 24.36C89.1526 24.4533 89.0032 24.5 88.7979 24.5ZM92.8858 24.5C92.4938 24.5 92.2978 24.304 92.2978 23.912V15.596C92.2978 15.204 92.4938 15.008 92.8858 15.008C93.0865 15.008 93.2825 15.1247 93.4738 15.358L99.1018 22.61H98.8078V15.596C98.8078 15.204 99.0038 15.008 99.3958 15.008C99.7878 15.008 99.9838 15.204 99.9838 15.596V23.912C99.9838 24.304 99.7878 24.5 99.3958 24.5C99.1858 24.5 98.9898 24.3833 98.8078 24.15L93.1798 16.898H93.4738V23.912C93.4738 24.304 93.2778 24.5 92.8858 24.5ZM103.482 24.5C103.09 24.5 102.894 24.304 102.894 23.912V15.596C102.894 15.204 103.09 15.008 103.482 15.008H108.507C108.9 15.008 109.096 15.204 109.096 15.596C109.096 15.988 108.9 16.184 108.507 16.184H104.07V19.124H106.856C107.248 19.124 107.444 19.32 107.444 19.712C107.444 20.104 107.248 20.3 106.856 20.3H104.07V23.324H108.507C108.9 23.324 109.096 23.52 109.096 23.912C109.096 24.304 108.9 24.5 108.507 24.5H103.482Z" fill="white"/>
</g>
<defs>
<linearGradient id="paint0_linear_84_244" x1="31.055" y1="6.13588" x2="6.3348" y2="29.4949" gradientUnits="userSpaceOnUse">
<stop stop-color="#56F3E6"/>
<stop offset="0.733" stop-color="#5CF0B2"/>
<stop offset="1" stop-color="#3DAB44"/>
</linearGradient>
<linearGradient id="paint1_linear_84_244" x1="17.3605" y1="3.05168" x2="3.29955" y2="17.0367" gradientUnits="userSpaceOnUse">
<stop stop-color="#79ECF6"/>
<stop offset="1" stop-color="#51BAA9"/>
</linearGradient>
<linearGradient id="paint2_linear_84_244" x1="33.4418" y1="19.2196" x2="19.3809" y2="33.2053" gradientUnits="userSpaceOnUse">
<stop stop-color="#79E1F6"/>
<stop offset="1" stop-color="#51BA55"/>
</linearGradient>
<linearGradient id="paint3_linear_84_244" x1="29.7264" y1="6.92022" x2="25.9707" y2="10.4349" gradientUnits="userSpaceOnUse">
<stop stop-color="#A5B0F7"/>
<stop offset="0.0001" stop-color="#87C5DE"/>
<stop offset="0.793" stop-color="#80BCD9"/>
<stop offset="0.873" stop-color="#74ADD0"/>
</linearGradient>
</defs>
</svg>
